<svg id="Group_2" data-name="Group 2" xmlns="http://www.w3.org/2000/svg" xmlns:xlink="http://www.w3.org/1999/xlink" width="774.684" height="442.282" viewBox="0 0 774.684 442.282">
  <defs>
    <clipPath id="clip-path">
      <rect id="Rectangle_1" data-name="Rectangle 1" width="774.684" height="442.282" fill="#000"/>
    </clipPath>
  </defs>
  <g id="Group_1" data-name="Group 1" clip-path="url(#clip-path)">
    <path id="Path_1" data-name="Path 1" d="M241.54,1.845V435.7a.568.568,0,0,1-.568.568H205.709a.568.568,0,0,1-.568-.568V246.985a.568.568,0,0,0-.568-.568H187.735a.568.568,0,0,0-.568.568V435.7a.568.568,0,0,1-.568.568H151.128a.568.568,0,0,1-.568-.568V1.845a.568.568,0,0,1,.568-.568H186.6a.568.568,0,0,1,.568.568V209.462a.568.568,0,0,0,.568.568h16.838a.568.568,0,0,0,.568-.568V1.845a.568.568,0,0,1,.568-.568h35.264a.568.568,0,0,1,.568.568" transform="translate(191.292 1.622)" fill="#000"/>
    <path id="Path_2" data-name="Path 2" d="M90.8,42.4C88.8,18.645,69.285,0,45.486,0S2.18,18.645.177,42.4C.052,43.734,0,45.087,0,46.45v348.03c0,.67.011,1.34.041,2,1.029,24.735,20.982,44.448,45.445,44.448s44.425-19.713,45.454-44.448c.032-.661.041-1.331.041-2V46.45c0-1.362-.052-2.716-.177-4.046m-37,368.676H36.955a.568.568,0,0,1-.568-.568V31.825a.568.568,0,0,1,.568-.568H53.8a.568.568,0,0,1,.568.568V410.512a.568.568,0,0,1-.568.568" transform="translate(0 -0.001)" fill="#000"/>
    <path id="Path_3" data-name="Path 3" d="M154.178,31.612h-16.85a.568.568,0,0,0-.568.568V411.107a.568.568,0,0,0,.568.568h16.85a.568.568,0,0,0,.568-.568V247.849a.568.568,0,0,1,.568-.568h35.473a.568.568,0,0,1,.568.568V395.075c0,.67-.009,1.342-.041,2-1.029,24.735-20.982,44.448-45.454,44.448s-44.416-19.713-45.445-44.448c-.03-.658-.041-1.331-.041-2V47.045c0-1.362.052-2.713.177-4.046,2-23.759,21.518-42.4,45.309-42.4S189.174,19.24,191.176,43c.125,1.333.177,2.684.177,4.046V210.326a.568.568,0,0,1-.568.568H155.313a.568.568,0,0,1-.568-.568V32.18a.568.568,0,0,0-.568-.568" transform="translate(127.527 0.759)" fill="#000"/>
    <path id="Path_4" data-name="Path 4" d="M301.12,51.735V393.012c0,.67.011,1.34.041,2h-.041v41.124a.568.568,0,0,0,.568.568h55.544a22.715,22.715,0,0,0,10.969-2.8,46.536,46.536,0,0,0,23.859-38.89c.032-.661.041-1.331.041-2V47.089c0-1.362-.052-2.713-.177-4.044A46.187,46.187,0,0,0,358.006,2.108a31.641,31.641,0,0,0-8.056-.954H301.688a.568.568,0,0,0-.568.568V51.735Zm53.8,357.877H338.087a.568.568,0,0,1-.568-.568V30.117a.568.568,0,0,1,.568-.568h16.838a.568.568,0,0,1,.568.568V409.044a.568.568,0,0,1-.568.568" transform="translate(382.583 1.466)" fill="#000"/>
    <path id="Path_5" data-name="Path 5" d="M325.6,205.617a46.747,46.747,0,0,0,16.527-35.822V47.494A47.076,47.076,0,0,0,338.252,28.7a45.736,45.736,0,0,0-32.73-26.767,42.8,42.8,0,0,0-7-.847h-46.8a.568.568,0,0,0-.568.568V436.373a.568.568,0,0,0,.568.568H286.97a.568.568,0,0,0,.568-.568V245.49a.586.586,0,0,1,.6-.584,17.985,17.985,0,0,1,17.388,17.974V436.373a.568.568,0,0,0,.568.568h35.473a.568.568,0,0,0,.568-.568V262.693A46.717,46.717,0,0,0,324.2,225.729a44.87,44.87,0,0,0-18.675-8.594v-1.782a44.761,44.761,0,0,0,20.081-9.736m-37.5-176.05h16.85a.568.568,0,0,1,.568.568V175.982a17.985,17.985,0,0,1-17.388,17.974.588.588,0,0,1-.6-.584V30.134a.568.568,0,0,1,.568-.568" transform="translate(319.095 1.381)" fill="#000"/>
    <path id="Path_6" data-name="Path 6" d="M211.815,1.94l-13.555,433.6a.566.566,0,0,0,.568.586h34.5a.566.566,0,0,0,.568-.543l4.566-106.638a.562.562,0,0,1,.563-.545h21.05a.569.569,0,0,1,.568.543l4.711,106.64a.564.564,0,0,0,.568.543h34.535a.566.566,0,0,0,.568-.584L288.811,1.94a.565.565,0,0,0-.568-.552H212.383a.568.568,0,0,0-.568.552m26.677,289.509,2.325-261.7a.565.565,0,0,1,.568-.563h15.957a.571.571,0,0,1,.568.563l2.706,261.7a.565.565,0,0,1-.568.572H239.059a.565.565,0,0,1-.568-.572" transform="translate(251.896 1.764)" fill="#000"/>
    <path id="Path_7" data-name="Path 7" d="M125.291,205.617a46.747,46.747,0,0,0,16.527-35.822V47.494A47.076,47.076,0,0,0,137.94,28.7,45.736,45.736,0,0,0,105.21,1.934a42.8,42.8,0,0,0-7-.847h-46.8a.568.568,0,0,0-.568.568V436.373a.568.568,0,0,0,.568.568H86.658a.568.568,0,0,0,.568-.568V245.49a.586.586,0,0,1,.6-.584A17.985,17.985,0,0,1,105.21,262.88V436.373a.566.566,0,0,0,.568.568h35.473a.568.568,0,0,0,.568-.568V262.693a46.717,46.717,0,0,0-17.933-36.964,44.87,44.87,0,0,0-18.675-8.594v-1.782a44.761,44.761,0,0,0,20.081-9.736m-37.5-176.05h16.85a.568.568,0,0,1,.568.568V175.982a17.985,17.985,0,0,1-17.388,17.974.588.588,0,0,1-.6-.584V30.134a.568.568,0,0,1,.568-.568" transform="translate(64.591 1.381)" fill="#000"/>
  </g>
</svg>
