<svg width="38" height="30" viewBox="0 0 38 30" fill="none" xmlns="http://www.w3.org/2000/svg">
<path d="M33.3438 0.90625C33.9688 0.90625 34.3594 1.10937 34.5156 1.51562C34.6719 1.92188 34.75 2.29688 34.75 2.64062C34.7188 3.04688 34.5781 3.42188 34.3281 3.76562C34.1094 4.10937 33.8281 4.42188 33.4844 4.70312C33.1406 4.98438 32.7812 5.26562 32.4062 5.54688C32.0625 5.79687 31.75 6.04688 31.4688 6.29688C31.0312 6.73437 30.5781 7.21875 30.1094 7.75C29.6406 8.28125 29.2188 8.84375 28.8438 9.4375C28.4688 10.0313 28.1562 10.6406 27.9062 11.2656C27.6562 11.8906 27.5312 12.5156 27.5312 13.1406C27.5312 13.3906 27.5625 13.6562 27.625 13.9375C27.7188 14.2188 28.0312 14.3594 28.5625 14.3594C29.5625 14.3594 30.5781 14.5156 31.6094 14.8281C32.6719 15.1406 33.6406 15.6094 34.5156 16.2344C35.3906 16.8594 36.0938 17.6406 36.625 18.5781C37.1875 19.4844 37.4688 20.5469 37.4688 21.7656C37.4688 22.9531 37.2812 24.0156 36.9062 24.9531C36.5312 25.8594 36 26.625 35.3125 27.25C34.625 27.875 33.8125 28.3594 32.875 28.7031C31.9688 29.0156 30.9531 29.1719 29.8281 29.1719C27.8906 29.1719 26.3125 28.8125 25.0938 28.0938C23.9062 27.3438 22.9844 26.4531 22.3281 25.4219C21.6719 24.3594 21.2344 23.2656 21.0156 22.1406C20.7969 20.9844 20.6875 19.9844 20.6875 19.1406C20.6875 17.4531 20.9375 15.7969 21.4375 14.1719C21.9688 12.5469 22.6719 11.0156 23.5469 9.57812C24.4219 8.14062 25.4219 6.82812 26.5469 5.64062C27.6719 4.42188 28.8281 3.35937 30.0156 2.45312C30.4844 2.10938 31.0156 1.76562 31.6094 1.42188C32.2344 1.07813 32.8125 0.90625 33.3438 0.90625ZM12.7656 0.90625C13.3906 0.90625 13.7812 1.10937 13.9375 1.51562C14.0938 1.92188 14.1719 2.29688 14.1719 2.64062C14.1406 3.04688 14 3.42188 13.75 3.76562C13.5312 4.10937 13.25 4.42188 12.9062 4.70312C12.5625 4.98438 12.2031 5.26562 11.8281 5.54688C11.4844 5.79687 11.1719 6.04688 10.8906 6.29688C10.4531 6.73437 10 7.21875 9.53125 7.75C9.0625 8.28125 8.64062 8.84375 8.26562 9.4375C7.89062 10.0313 7.57812 10.6406 7.32812 11.2656C7.07812 11.8906 6.95312 12.5156 6.95312 13.1406C6.95312 13.3906 6.98438 13.6562 7.04688 13.9375C7.14062 14.2188 7.45312 14.3594 7.98438 14.3594C8.98438 14.3594 10 14.5156 11.0312 14.8281C12.0938 15.1406 13.0625 15.6094 13.9375 16.2344C14.8125 16.8594 15.5156 17.6406 16.0469 18.5781C16.6094 19.4844 16.8906 20.5469 16.8906 21.7656C16.8906 22.9531 16.7031 24.0156 16.3281 24.9531C15.9531 25.8594 15.4219 26.625 14.7344 27.25C14.0469 27.875 13.2344 28.3594 12.2969 28.7031C11.3906 29.0156 10.375 29.1719 9.25 29.1719C7.3125 29.1719 5.73438 28.8125 4.51562 28.0938C3.32812 27.3438 2.40625 26.4531 1.75 25.4219C1.09375 24.3594 0.65625 23.2656 0.4375 22.1406C0.21875 20.9844 0.109375 19.9844 0.109375 19.1406C0.109375 17.4531 0.359375 15.7969 0.859375 14.1719C1.39062 12.5469 2.09375 11.0156 2.96875 9.57812C3.84375 8.14062 4.84375 6.82812 5.96875 5.64062C7.09375 4.42188 8.25 3.35937 9.4375 2.45312C9.90625 2.10938 10.4375 1.76562 11.0312 1.42188C11.6562 1.07813 12.2344 0.90625 12.7656 0.90625Z" fill="#E2D1E4"/>
</svg>
